PathFileType	3	(X/Y/Z)	squats_2__view1_aligned.trc
DataRate	CameraRate	NumFrames	NumMarkers	Units	OrigDataRate	OrigDataStartFrame	OrigNumFrames
100.0	100.0	18	19	mm	100.0	1113	1550
Frame#	Time	pelvis			neck			head			hip_left			hip_right			knee_left			knee_right			ankle_left			ankle_right			heel_left			heel_right			toe_left			toe_right			shoulder_left			shoulder_right			elbow_left			elbow_right			wrist_left			wrist_right			
		X1	Y1	Z1	X2	Y2	Z2	X3	Y3	Z3	X4	Y4	Z4	X5	Y5	Z5	X6	Y6	Z6	X7	Y7	Z7	X8	Y8	Z8	X9	Y9	Z9	X10	Y10	Z10	X11	Y11	Z11	X12	Y12	Z12	X13	Y13	Z13	X14	Y14	Z14	X15	Y15	Z15	X16	Y16	Z16	X17	Y17	Z17	X18	Y18	Z18	X19	Y19	Z19	
1113	11.12000	12.421446	942.668452	6.264977	37.728142	1524.547360	-34.505019	38.966823	1682.054174	-124.553342	-64.355288	948.797285	12.721536	89.198212	936.539617	-0.191617	-138.877695	535.664919	48.177281	117.577375	516.374520	11.509583	-185.089924	157.348271	165.943444	132.004856	128.609433	101.840073	-178.708629	113.730077	204.139226	129.180232	88.482287	143.508324	-240.469287	89.297302	-8.700021	146.224160	30.892658	-70.280421	-146.366689	1465.073298	2.564141	219.198446	1459.137342	-25.437017	-250.315934	1196.398965	-30.425903	265.872015	1179.961794	-104.361507	-192.647305	1150.888155	-255.313270	182.991526	1123.305675	-341.135308
1114	11.13000	12.024633	942.828394	6.826228	37.834767	1524.399716	-34.489300	39.085429	1681.847518	-124.740961	-64.738936	949.009882	13.239186	88.788218	936.646904	0.413253	-139.451159	535.812421	48.646885	117.029203	516.376512	12.011348	-185.700797	157.363315	166.586352	131.406184	128.455844	102.491508	-179.337977	113.725938	204.782890	128.625516	88.308852	144.156245	-241.192324	89.336707	-8.033936	145.460485	30.796367	-69.662012	-146.613346	1465.145757	1.856227	219.457817	1458.986571	-25.599909	-248.843956	1196.049387	-32.465123	264.255668	1179.457701	-104.820788	-185.310462	1155.512041	-255.043578	177.526059	1125.451902	-339.770935
1115	11.14000	11.627820	942.988336	7.387480	37.941392	1524.252071	-34.473581	39.204034	1681.640862	-124.928581	-65.122584	949.222479	13.756837	88.378224	936.754192	1.018123	-140.024624	535.959923	49.116489	116.481031	516.378504	12.513113	-186.311670	157.378359	167.229261	130.807511	128.302256	103.142942	-179.967326	113.721800	205.426554	128.070800	88.135417	144.804166	-241.915360	89.376113	-7.367850	144.696811	30.700076	-69.043602	-146.860002	1465.218216	1.148314	219.717188	1458.835799	-25.762801	-247.371978	1195.699810	-34.504343	262.639321	1178.953608	-105.280068	-177.973619	1160.135926	-254.773886	172.060592	1127.598129	-338.406562
1116	11.15000	11.260832	943.200875	7.947607	38.382777	1524.105426	-34.554426	39.627264	1681.401204	-125.255623	-65.477509	949.507742	14.262397	87.999189	936.894008	1.632800	-140.600800	536.164302	49.593837	115.921050	516.387656	13.052607	-186.967275	157.458579	167.920637	130.153995	128.144486	103.841648	-180.659017	113.792145	206.131333	127.462986	87.955837	145.497597	-242.608054	89.402623	-6.667815	143.894380	30.617104	-68.400533	-146.743769	1465.603189	0.331200	220.286669	1458.556359	-26.311801	-245.095292	1195.784987	-37.490186	260.247606	1178.938851	-107.160135	-169.255732	1165.650151	-253.779230	164.941129	1131.593501	-336.642588
1117	11.16000	10.893844	943.413415	8.507735	38.824162	1523.958780	-34.635271	40.050495	1681.161546	-125.582664	-65.832434	949.793004	14.767956	87.620154	937.033825	2.247477	-141.176975	536.368680	50.071185	115.361069	516.396808	13.592101	-187.622880	157.538799	168.612014	129.500479	127.986716	104.540354	-181.350709	113.862491	206.836112	126.855173	87.776256	146.191027	-243.300748	89.429133	-5.967781	143.091950	30.534132	-67.757464	-146.627535	1465.988162	-0.485915	220.856150	1458.276919	-26.860801	-242.818606	1195.870165	-40.476029	257.855890	1178.924095	-109.040201	-160.537845	1171.164376	-252.784574	157.821666	1135.588874	-334.878614
1118	11.17000	10.526856	943.625955	9.067862	39.265548	1523.812135	-34.716116	40.473725	1680.921888	-125.909706	-66.187358	950.078267	15.273516	87.241119	937.173642	2.862155	-141.753151	536.573059	50.548533	114.801088	516.405960	14.131595	-188.278484	157.619019	169.303390	128.846962	127.828947	105.239060	-182.042400	113.932837	207.540890	126.247360	87.596676	146.884458	-243.993443	89.455643	-5.267746	142.289519	30.451160	-67.114394	-146.511301	1466.373134	-1.303029	221.425631	1457.997479	-27.409801	-240.541920	1195.955342	-43.461872	255.464175	1178.909339	-110.920267	-151.819958	1176.678602	-251.789918	150.702203	1139.584247	-333.114639
1119	11.18000	10.159868	943.838495	9.627989	39.706933	1523.665489	-34.796962	40.896955	1680.682230	-126.236747	-66.542283	950.363529	15.779075	86.862083	937.313458	3.476832	-142.329326	536.777438	51.025881	114.241106	516.415112	14.671089	-188.934089	157.699239	169.994766	128.193446	127.671177	105.937766	-182.734092	114.003182	208.245669	125.639547	87.417095	147.577889	-244.686137	89.482153	-4.567712	141.487089	30.368188	-66.471325	-146.395067	1466.758107	-2.120144	221.995112	1457.718039	-27.958801	-238.265233	1196.040519	-46.447714	253.072460	1178.894582	-112.800333	-143.102071	1182.192827	-250.795262	143.582740	1143.579620	-331.350665
1120	11.19000	9.792880	944.051035	10.188117	40.148318	1523.518843	-34.877807	41.320185	1680.442572	-126.563788	-66.897207	950.648792	16.284635	86.483048	937.453275	4.091509	-142.905502	536.981817	51.503230	113.681125	516.424264	15.210583	-189.589694	157.779460	170.686142	127.539929	127.513407	106.636472	-183.425783	114.073528	208.950448	125.031733	87.237515	148.271319	-245.378832	89.508663	-3.867677	140.684658	30.285216	-65.828255	-146.278833	1467.143080	-2.937258	222.564592	1457.438600	-28.507801	-235.988547	1196.125696	-49.433557	250.680744	1178.879826	-114.680400	-134.384184	1187.707052	-249.800606	136.463277	1147.574992	-329.586691
1121	11.20000	9.425892	944.263575	10.748244	40.589704	1523.372198	-34.958652	41.743415	1680.202914	-126.890830	-67.252132	950.934054	16.790195	86.104013	937.593091	4.706187	-143.481677	537.186196	51.980578	113.121144	516.433416	15.750077	-190.245298	157.859680	171.377518	126.886413	127.355637	107.335178	-184.117474	114.143874	209.655227	124.423920	87.057934	148.964750	-246.071526	89.535172	-3.167642	139.882227	30.202244	-65.185186	-146.162599	1467.528052	-3.754373	223.134073	1457.159160	-29.056801	-233.711861	1196.210873	-52.419400	248.289029	1178.865070	-116.560466	-125.666298	1193.221277	-248.805950	129.343814	1151.570365	-327.822716
1122	11.21000	9.058904	944.476115	11.308371	41.031089	1523.225552	-35.039497	42.166645	1679.963256	-127.217871	-67.607056	951.219317	17.295754	85.724978	937.732908	5.320864	-144.057853	537.390575	52.457926	112.561163	516.442567	16.289571	-190.900903	157.939900	172.068894	126.232897	127.197868	108.033884	-184.809166	114.214219	210.360006	123.816107	86.878354	149.658181	-246.764220	89.561682	-2.467608	139.079797	30.119273	-64.542117	-146.046365	1467.913025	-4.571487	223.703554	1456.879720	-29.605801	-231.435175	1196.296050	-55.405243	245.897313	1178.850313	-118.440532	-116.948411	1198.735502	-247.811295	122.224351	1155.565738	-326.058742
1123	11.22000	8.691916	944.688655	11.868499	41.472474	1523.078907	-35.120343	42.589875	1679.723598	-127.544913	-67.961981	951.504579	17.801314	85.345943	937.872725	5.935541	-144.634028	537.594954	52.935274	112.001182	516.451719	16.829065	-191.556508	158.020120	172.760270	125.579380	127.040098	108.732590	-185.500857	114.284565	211.064784	123.208293	86.698773	150.351611	-247.456915	89.588192	-1.767573	138.277366	30.036301	-63.899047	-145.930132	1468.297998	-5.388602	224.273035	1456.600280	-30.154801	-229.158489	1196.381228	-58.391085	243.505598	1178.835557	-120.320598	-108.230524	1204.249727	-246.816639	115.104888	1159.561110	-324.294768
1124	11.23000	8.324928	944.901195	12.428626	41.913860	1522.932261	-35.201188	43.013105	1679.483940	-127.871954	-68.316905	951.789842	18.306874	84.966908	938.012541	6.550219	-145.210204	537.799333	53.412622	111.441201	516.460871	17.368559	-192.212113	158.100340	173.451646	124.925864	126.882328	109.431296	-186.192549	114.354910	211.769563	122.600480	86.519193	151.045042	-248.149609	89.614702	-1.067539	137.474935	29.953329	-63.255978	-145.813898	1468.682970	-6.205716	224.842516	1456.320840	-30.703801	-226.881803	1196.466405	-61.376928	241.113882	1178.820801	-122.200665	-99.512637	1209.763952	-245.821983	107.985425	1163.556483	-322.530793
1125	11.24000	7.957940	945.113735	12.988753	42.355245	1522.785616	-35.282033	43.436335	1679.244282	-128.198996	-68.671830	952.075104	18.812433	84.587872	938.152358	7.164896	-145.786379	538.003712	53.889970	110.881220	516.470023	17.908053	-192.867717	158.180560	174.143022	124.272348	126.724559	110.130002	-186.884240	114.425256	212.474342	121.992667	86.339612	151.738473	-248.842303	89.641212	-0.367504	136.672505	29.870357	-62.612909	-145.697664	1469.067943	-7.022831	225.411997	1456.041400	-31.252801	-224.605117	1196.551582	-64.362771	238.722167	1178.806044	-124.080731	-90.794750	1215.278178	-244.827327	100.865962	1167.551856	-320.766819
1126	11.25000	7.715853	945.237096	13.326945	43.100418	1522.567068	-35.580986	44.229078	1678.917065	-128.752065	-68.891541	952.274438	19.088910	84.323411	938.199745	7.564804	-146.171005	538.162652	54.223097	110.514560	516.435649	18.253591	-193.306887	158.280165	174.696141	123.922585	126.571022	110.558224	-187.386280	114.523815	213.049655	121.699256	86.156063	152.151195	-249.101664	89.662277	0.144771	136.238327	29.863997	-62.280706	-145.177740	1469.583597	-8.002806	226.238621	1455.563880	-32.173354	-221.810281	1196.839728	-67.952919	235.873930	1179.178469	-127.060237	-82.134839	1220.787063	-243.707175	93.526688	1172.957421	-318.599678
1127	11.26000	7.473766	945.360457	13.665136	43.845590	1522.348520	-35.879939	45.021821	1678.589848	-129.305133	-69.111253	952.473773	19.365386	84.058950	938.247132	7.964711	-146.555630	538.321591	54.556224	110.147900	516.401274	18.599128	-193.746057	158.379771	175.249260	123.572823	126.417485	110.986445	-187.888320	114.622374	213.624968	121.405845	85.972514	152.563916	-249.361025	89.683342	0.657046	135.804149	29.857637	-61.948504	-144.657816	1470.099250	-8.982782	227.065246	1455.086361	-33.093907	-219.015446	1197.127874	-71.543067	233.025693	1179.550894	-130.039743	-73.474928	1226.295949	-242.587023	86.187413	1178.362986	-316.432537
1128	11.27000	7.231680	945.483817	14.003328	44.590763	1522.129972	-36.178892	45.814564	1678.262631	-129.858202	-69.330964	952.673107	19.641862	83.794488	938.294519	8.364619	-146.940255	538.480531	54.889351	109.781241	516.366899	18.944666	-194.185227	158.479377	175.802378	123.223061	126.263949	111.414667	-188.390360	114.720933	214.200282	121.112434	85.788965	152.976638	-249.620386	89.704408	1.169322	135.369971	29.851277	-61.616302	-144.137892	1470.614904	-9.962758	227.891870	1454.608841	-34.014460	-216.220611	1197.416020	-75.133215	230.177455	1179.923318	-133.019249	-64.815017	1231.804834	-241.466871	78.848139	1183.768551	-314.265396
1129	11.28000	6.989593	945.607178	14.341519	45.335935	1521.911425	-36.477845	46.607307	1677.935415	-130.411271	-69.550675	952.872441	19.918338	83.530027	938.341906	8.764527	-147.324880	538.639471	55.222477	109.414581	516.332524	19.290204	-194.624397	158.578982	176.355497	122.873299	126.110412	111.842888	-188.892400	114.819492	214.775595	120.819023	85.605416	153.389360	-249.879747	89.725473	1.681597	134.935793	29.844917	-61.284100	-143.617968	1471.130558	-10.942733	228.718495	1454.131321	-34.935013	-213.425776	1197.704166	-78.723363	227.329218	1180.295743	-135.998756	-56.155106	1237.313720	-240.346719	71.508865	1189.174116	-312.098255
1130	11.29000	6.747506	945.730538	14.679711	46.081108	1521.692877	-36.776797	47.400050	1677.608198	-130.964340	-69.770387	953.071776	20.194815	83.265565	938.389293	9.164434	-147.709505	538.798411	55.555604	109.047922	516.298150	19.635742	-195.063567	158.678588	176.908616	122.523537	125.956875	112.271110	-189.394440	114.918051	215.350908	120.525612	85.421867	153.802082	-250.139108	89.746538	2.193872	134.501615	29.838557	-60.951898	-143.098045	1471.646212	-11.922709	229.545119	1453.653801	-35.855566	-210.630941	1197.992312	-82.313511	224.480981	1180.668168	-138.978262	-47.495195	1242.822605	-239.226568	64.169590	1194.579681	-309.931115
